# xmcd CD database file
#
# Track frame offsets:
#	150
#	38485
#	73555
#	107955
#	143475
#	177518
#	233103
#	261565
#	304223
#
# Disc length: 4444 seconds
#
# Revision: 1
# Processed by: cddbd v1.5.2PL0 Copyright (c) Steve Scherf et al.
# Submitted via: CDex 1.70beta2
#
DISCID=7d115a09
DTITLE=Abercrombie/Erskine/Mintzer/Patitucci - The Hudson Project
DYEAR=2000
DGENRE=Jazz
TTITLE0=Runferyerlife
TTITLE1=Labor Day
TTITLE2=Little Swing
TTITLE3=Cats and Kittens
TTITLE4=The Well
TTITLE5=Bass Desires
TTITLE6=That's For Sure
TTITLE7=Modern Day Tuba
TTITLE8=Runferyerlife (Alternate Take)
EXTD=YEAR: 2000
EXTT0=
EXTT1=
EXTT2=
EXTT3=
EXTT4=
EXTT5=
EXTT6=
EXTT7=
EXTT8=
PLAYORDER=
